<svg xmlns="http://www.w3.org/2000/svg" width="36" height="36" viewBox="0 0 36 36">
    <g fill="none" fill-rule="evenodd">
        <g>
            <g>
                <path d="M0 0H36V36H0z" transform="translate(-472 -19) translate(472 19)"/>
                <g fill="red" fill-rule="nonzero">
                    <path d="M18 33.75C9.302 33.75 2.25 26.698 2.25 18S9.302 2.25 18 2.25 33.75 9.302 33.75 18 26.698 33.75 18 33.75zM18 36c9.941 0 18-8.059 18-18S27.941 0 18 0 0 8.059 0 18s8.059 18 18 18z" transform="translate(-472 -19) translate(472 19)"/>
                    <path d="M10.454 10.454c.21-.212.497-.331.796-.331.299 0 .585.119.796.33L18 16.41l5.953-5.955c.285-.285.7-.396 1.089-.292.388.104.692.408.796.796.104.39-.007.804-.291 1.088L19.59 18l5.956 5.953c.284.285.395.7.291 1.089-.104.388-.408.692-.796.796-.39.104-.804-.007-1.089-.291L18 19.59l-5.954 5.956c-.284.284-.699.395-1.088.291-.388-.104-.692-.408-.796-.796-.104-.39.007-.804.291-1.089L16.41 18l-5.955-5.954c-.212-.21-.331-.497-.331-.796 0-.299.119-.585.33-.796z" transform="translate(-472 -19) translate(472 19)"/>
                </g>
            </g>
        </g>
    </g>
</svg>
